<svg version="1.1" viewBox="0.0 0.0 1728.0 864.0" fill="none" stroke="none" stroke-linecap="square" stroke-miterlimit="10" xmlns:xlink="http://www.w3.org/1999/xlink" xmlns="http://www.w3.org/2000/svg"><clipPath id="p.0"><path d="m0 0l1728.0 0l0 864.0l-1728.0 0l0 -864.0z" clip-rule="nonzero"/></clipPath><g clip-path="url(#p.0)"><path fill="#000000" fill-opacity="0.0" d="m0 0l1728.0 0l0 864.0l-1728.0 0z" fill-rule="evenodd"/><g filter="url(#shadowFilter-p.1)"><use xlink:href="#p.1" transform="matrix(1.0 0.0 0.0 1.0 0.0 13.999999999999961)"/></g><defs><filter id="shadowFilter-p.1" filterUnits="userSpaceOnUse"><feGaussianBlur in="SourceAlpha" stdDeviation="7.0" result="blur"/><feComponentTransfer in="blur" color-interpolation-filters="sRGB"><feFuncR type="linear" slope="0" intercept="0.0"/><feFuncG type="linear" slope="0" intercept="0.0"/><feFuncB type="linear" slope="0" intercept="0.0"/><feFuncA type="linear" slope="0.5" intercept="0"/></feComponentTransfer></filter></defs><g id="p.1"><defs><radialGradient id="p.2" gradientUnits="userSpaceOnUse" gradientTransform="matrix(14.916860720669161 0.0 0.0 14.916860720669161 0.0 0.0)" spreadMethod="pad" cx="58.99364594727702" cy="13.877282538866673" fx="58.99364594727702" fy="13.877282538866673" r="14.916860580444336"><stop offset="0.0" stop-color="#dfe9fb"/><stop offset="1.0" stop-color="#6e9be7"/></radialGradient></defs><path fill="url(#p.2)" d="m698.80316 120.90662l0 0c0 -23.77626 19.274475 -43.050735 43.05072 -43.050735l276.29224 0c11.417725 0 22.36792 4.5356903 30.441406 12.609268c8.073608 8.073578 12.609375 19.023705 12.609375 30.441467l0 172.19775c0 23.776245 -19.274536 43.05072 -43.05078 43.05072l-276.29224 0c-23.776245 0 -43.05072 -19.274475 -43.05072 -43.05072z" fill-rule="evenodd"/><path stroke="#666666" stroke-width="1.0" stroke-linejoin="round" stroke-linecap="butt" d="m698.80316 120.90662l0 0c0 -23.77626 19.274475 -43.050735 43.05072 -43.050735l276.29224 0c11.417725 0 22.36792 4.5356903 30.441406 12.609268c8.073608 8.073578 12.609375 19.023705 12.609375 30.441467l0 172.19775c0 23.776245 -19.274536 43.05072 -43.05078 43.05072l-276.29224 0c-23.776245 0 -43.05072 -19.274475 -43.05072 -43.05072z" fill-rule="evenodd"/><path fill="#000000" d="m824.53516 215.46799l-8.53125 0l-1.6875 5.9375l-5.78125 0l9.3125 -28.4375l4.984375 0l9.140625 28.4375l-5.78125 0l-1.65625 -5.9375zm-7.1875 -4.671875l5.890625 0l-2.90625 -10.46875l-2.984375 10.46875zm16.847656 -0.109375q0 -2.40625 0.59375 -4.390625q0.609375 -2.0 1.71875 -3.421875q1.109375 -1.4375 2.6875 -2.21875q1.59375 -0.78125 3.578125 -0.78125q1.859375 0 3.1875 0.625q1.328125 0.625 2.265625 1.78125l0.21875 -2.015625l4.9375 0l0 20.453125q0 2.15625 -0.734375 3.828125q-0.734375 1.6875 -2.0625 2.828125q-1.3125 1.15625 -3.15625 1.75q-1.84375 0.609375 -4.0625 0.609375q-0.96875 0 -2.0625 -0.203125q-1.09375 -0.1875 -2.171875 -0.609375q-1.0625 -0.40625 -2.03125 -1.046875q-0.953125 -0.625 -1.625 -1.5l2.4375 -3.3125q1.03125 1.171875 2.34375 1.78125q1.3125 0.625 2.828125 0.625q2.28125 0 3.5625 -1.21875q1.28125 -1.21875 1.28125 -3.46875l0 -1.21875q-0.953125 1.0625 -2.234375 1.65625q-1.28125 0.578125 -2.953125 0.578125q-1.984375 0 -3.5625 -0.8125q-1.5625 -0.8125 -2.671875 -2.234375q-1.109375 -1.421875 -1.71875 -3.390625q-0.59375 -1.96875 -0.59375 -4.265625l0 -0.40625zm5.453125 0.40625q0 1.328125 0.265625 2.46875q0.265625 1.140625 0.8125 2.0q0.546875 0.84375 1.375 1.328125q0.84375 0.484375 2.0 0.484375q1.421875 0 2.34375 -0.546875q0.9375 -0.546875 1.484375 -1.515625l0 -8.953125q-0.546875 -0.984375 -1.484375 -1.515625q-0.921875 -0.546875 -2.296875 -0.546875q-1.15625 0 -2.0 0.5q-0.84375 0.5 -1.40625 1.375q-0.546875 0.859375 -0.828125 2.03125q-0.265625 1.15625 -0.265625 2.484375l0 0.40625zm29.363281 10.703125q-2.453125 0 -4.453125 -0.796875q-1.984375 -0.8125 -3.40625 -2.1875q-1.421875 -1.375 -2.203125 -3.234375q-0.765625 -1.875 -0.765625 -4.0l0 -0.78125q0 -2.421875 0.765625 -4.421875q0.765625 -2.0 2.125 -3.4375q1.375 -1.453125 3.25 -2.25q1.875 -0.8125 4.078125 -0.8125q2.28125 0 4.0625 0.765625q1.796875 0.75 3.03125 2.125q1.25 1.359375 1.890625 3.28125q0.640625 1.921875 0.640625 4.25l0 2.296875l-14.328125 0q0.15625 1.078125 0.625 1.96875q0.484375 0.890625 1.21875 1.53125q0.75 0.640625 1.703125 1.0q0.953125 0.34375 2.09375 0.34375q0.796875 0 1.578125 -0.15625q0.796875 -0.15625 1.515625 -0.453125q0.734375 -0.3125 1.359375 -0.75q0.625 -0.453125 1.09375 -1.0625l2.71875 2.9375q-0.515625 0.71875 -1.328125 1.421875q-0.8125 0.6875 -1.921875 1.21875q-1.09375 0.53125 -2.4375 0.859375q-1.34375 0.34375 -2.90625 0.34375zm-0.65625 -17.515625q-0.90625 0 -1.671875 0.328125q-0.765625 0.3125 -1.34375 0.921875q-0.578125 0.59375 -0.96875 1.4375q-0.390625 0.84375 -0.578125 1.875l8.90625 0l0 -0.421875q-0.046875 -0.859375 -0.34375 -1.625q-0.28125 -0.765625 -0.828125 -1.3125q-0.546875 -0.5625 -1.34375 -0.875q-0.78125 -0.328125 -1.828125 -0.328125zm19.316406 -4.015625l0.34375 2.9375q1.125 -1.578125 2.75 -2.453125q1.625 -0.875 3.59375 -0.875q1.59375 0 2.921875 0.46875q1.328125 0.46875 2.296875 1.5q0.96875 1.03125 1.5 2.640625q0.546875 1.609375 0.546875 3.90625l0 13.015625l-5.4375 0l0 -12.9375q0 -1.25 -0.28125 -2.046875q-0.28125 -0.8125 -0.8125 -1.28125q-0.515625 -0.46875 -1.265625 -0.65625q-0.734375 -0.1875 -1.671875 -0.1875q-1.390625 0 -2.375 0.5625q-0.96875 0.546875 -1.578125 1.53125l0 15.015625l-5.453125 0l0 -21.140625l4.921875 0zm29.050781 -5.171875l0 5.171875l7.890625 0l0 4.015625l-7.890625 0l0 9.078125q0 1.15625 0.265625 1.921875q0.265625 0.765625 0.75 1.234375q0.484375 0.453125 1.171875 0.65625q0.703125 0.1875 1.5625 0.1875q0.625 0 1.28125 -0.046875q0.65625 -0.0625 1.25 -0.15625q0.59375 -0.09375 1.109375 -0.1875q0.515625 -0.09375 0.890625 -0.1875l0.53125 3.71875q-0.578125 0.34375 -1.34375 0.59375q-0.75 0.234375 -1.609375 0.390625q-0.859375 0.15625 -1.796875 0.234375q-0.921875 0.09375 -1.8125 0.09375q-1.75 0 -3.171875 -0.453125q-1.40625 -0.46875 -2.421875 -1.421875q-1.0 -0.96875 -1.546875 -2.46875q-0.546875 -1.5 -0.546875 -3.578125l0 -9.609375l-4.8125 0l0 -4.015625l4.8125 0l0 -5.171875l5.4375 0zm24.300781 26.703125q-2.453125 0 -4.453125 -0.796875q-1.984375 -0.8125 -3.40625 -2.1875q-1.421875 -1.375 -2.203125 -3.234375q-0.765625 -1.875 -0.765625 -4.0l0 -0.78125q0 -2.421875 0.765625 -4.421875q0.765625 -2.0 2.125 -3.4375q1.375 -1.453125 3.25 -2.25q1.875 -0.8125 4.078125 -0.8125q2.28125 0 4.0625 0.765625q1.796875 0.75 3.03125 2.125q1.25 1.359375 1.890625 3.28125q0.640625 1.921875 0.640625 4.25l0 2.296875l-14.328125 0q0.15625 1.078125 0.625 1.96875q0.484375 0.890625 1.21875 1.53125q0.75 0.640625 1.703125 1.0q0.953125 0.34375 2.09375 0.34375q0.796875 0 1.578125 -0.15625q0.796875 -0.15625 1.515625 -0.453125q0.734375 -0.3125 1.359375 -0.75q0.625 -0.453125 1.09375 -1.0625l2.71875 2.9375q-0.515625 0.71875 -1.328125 1.421875q-0.8125 0.6875 -1.921875 1.21875q-1.09375 0.53125 -2.4375 0.859375q-1.34375 0.34375 -2.90625 0.34375zm-0.65625 -17.515625q-0.90625 0 -1.671875 0.328125q-0.765625 0.3125 -1.34375 0.921875q-0.578125 0.59375 -0.96875 1.4375q-0.390625 0.84375 -0.578125 1.875l8.90625 0l0 -0.421875q-0.046875 -0.859375 -0.34375 -1.625q-0.28125 -0.765625 -0.828125 -1.3125q-0.546875 -0.5625 -1.34375 -0.875q-0.78125 -0.328125 -1.828125 -0.328125z" fill-rule="nonzero"/></g><g filter="url(#shadowFilter-p.3)"><use xlink:href="#p.3" transform="matrix(1.0 0.0 0.0 1.0 0.0 14.0)"/></g><defs><filter id="shadowFilter-p.3" filterUnits="userSpaceOnUse"><feGaussianBlur in="SourceAlpha" stdDeviation="7.0" result="blur"/><feComponentTransfer in="blur" color-interpolation-filters="sRGB"><feFuncR type="linear" slope="0" intercept="0.0"/><feFuncG type="linear" slope="0" intercept="0.0"/><feFuncB type="linear" slope="0" intercept="0.0"/><feFuncA type="linear" slope="0.5" intercept="0"/></feComponentTransfer></filter></defs><g id="p.3"><defs><radialGradient id="p.4" gradientUnits="userSpaceOnUse" gradientTransform="matrix(14.916860720669161 0.0 0.0 14.916860720669161 0.0 0.0)" spreadMethod="pad" cx="58.99364594727702" cy="44.04395960560724" fx="58.99364594727702" fy="44.04395960560724" r="14.916860580444336"><stop offset="0.0" stop-color="#dfe9fb"/><stop offset="1.0" stop-color="#6e9be7"/></radialGradient></defs><path fill="url(#p.4)" d="m698.80316 570.89874l0 0c0 -23.776245 19.274475 -43.05072 43.05072 -43.05072l276.29224 0c11.417725 0 22.36792 4.5356445 30.441406 12.609253c8.073608 8.073547 12.609375 19.023682 12.609375 30.441467l0 172.19775c0 23.776245 -19.274536 43.05072 -43.05078 43.05072l-276.29224 0c-23.776245 0 -43.05072 -19.274475 -43.05072 -43.05072z" fill-rule="evenodd"/><path stroke="#666666" stroke-width="1.0" stroke-linejoin="round" stroke-linecap="butt" d="m698.80316 570.89874l0 0c0 -23.776245 19.274475 -43.05072 43.05072 -43.05072l276.29224 0c11.417725 0 22.36792 4.5356445 30.441406 12.609253c8.073608 8.073547 12.609375 19.023682 12.609375 30.441467l0 172.19775c0 23.776245 -19.274536 43.05072 -43.05078 43.05072l-276.29224 0c-23.776245 0 -43.05072 -19.274475 -43.05072 -43.05072z" fill-rule="evenodd"/><path fill="#000000" d="m816.0488 658.92883l-11.6875 0l0 8.03125l13.65625 0l0 4.4375l-19.15625 0l0 -28.4375l19.09375 0l0 4.46875l-13.59375 0l0 7.171875l11.6875 0l0 4.328125zm11.613281 -8.671875l0.34375 2.9375q1.125 -1.578125 2.75 -2.453125q1.625 -0.875 3.59375 -0.875q1.59375 0 2.921875 0.46875q1.328125 0.46875 2.296875 1.5q0.96875 1.03125 1.5 2.640625q0.546875 1.609375 0.546875 3.90625l0 13.015625l-5.4375 0l0 -12.9375q0 -1.25 -0.28125 -2.046875q-0.28125 -0.8125 -0.8125 -1.28125q-0.515625 -0.46875 -1.265625 -0.65625q-0.734375 -0.1875 -1.671875 -0.1875q-1.390625 0 -2.375 0.5625q-0.96875 0.546875 -1.578125 1.53125l0 15.015625l-5.453125 0l0 -21.140625l4.921875 0zm29.050781 -5.171875l0 5.171875l7.890625 0l0 4.015625l-7.890625 0l0 9.078125q0 1.15625 0.265625 1.921875q0.265625 0.765625 0.75 1.234375q0.484375 0.453125 1.171875 0.65625q0.703125 0.1875 1.5625 0.1875q0.625 0 1.28125 -0.046875q0.65625 -0.0625 1.25 -0.15625q0.59375 -0.09375 1.109375 -0.1875q0.515625 -0.09375 0.890625 -0.1875l0.53125 3.71875q-0.578125 0.34375 -1.34375 0.59375q-0.75 0.234375 -1.609375 0.390625q-0.859375 0.15625 -1.796875 0.234375q-0.921875 0.09375 -1.8125 0.09375q-1.75 0 -3.171875 -0.453125q-1.40625 -0.46875 -2.421875 -1.421875q-1.0 -0.96875 -1.546875 -2.46875q-0.546875 -1.5 -0.546875 -3.578125l0 -9.609375l-4.8125 0l0 -4.015625l4.8125 0l0 -5.171875l5.4375 0zm13.300781 15.546875q0 -2.296875 0.65625 -4.265625q0.671875 -1.96875 1.953125 -3.40625q1.28125 -1.453125 3.125 -2.265625q1.84375 -0.828125 4.21875 -0.828125q2.390625 0 4.234375 0.828125q1.859375 0.8125 3.140625 2.265625q1.28125 1.4375 1.9375 3.40625q0.671875 1.96875 0.671875 4.265625l0 0.40625q0 2.328125 -0.671875 4.296875q-0.65625 1.953125 -1.921875 3.40625q-1.265625 1.4375 -3.125 2.25q-1.859375 0.8125 -4.21875 0.8125q-2.390625 0 -4.25 -0.8125q-1.859375 -0.8125 -3.140625 -2.25q-1.28125 -1.453125 -1.953125 -3.40625q-0.65625 -1.96875 -0.65625 -4.296875l0 -0.40625zm5.421875 0.40625q0 1.328125 0.25 2.5q0.265625 1.15625 0.8125 2.03125q0.546875 0.859375 1.40625 1.375q0.875 0.5 2.109375 0.5q1.1875 0 2.046875 -0.5q0.859375 -0.515625 1.390625 -1.375q0.546875 -0.875 0.796875 -2.03125q0.25 -1.171875 0.25 -2.5l0 -0.40625q0 -1.28125 -0.25 -2.4375q-0.25 -1.15625 -0.796875 -2.03125q-0.53125 -0.875 -1.390625 -1.375q-0.859375 -0.515625 -2.09375 -0.515625q-1.203125 0 -2.0625 0.515625q-0.859375 0.5 -1.40625 1.375q-0.546875 0.875 -0.8125 2.03125q-0.25 1.15625 -0.25 2.4375l0 0.40625zm34.503906 -11.171875q1.21875 0 2.265625 0.171875q1.046875 0.171875 1.6875 0.359375l-0.796875 5.40625q-1.078125 -0.25 -2.203125 -0.375q-1.109375 -0.125 -2.125 -0.125q-2.296875 0 -3.671875 0.875q-1.375 0.875 -2.0625 2.515625l0 12.703125l-5.421875 0l0 -21.140625l5.0625 0l0.25 3.46875q1.28125 -1.796875 3.078125 -2.828125q1.796875 -1.03125 3.9375 -1.03125zm13.738281 0.390625l0.34375 2.9375q1.125 -1.578125 2.75 -2.453125q1.625 -0.875 3.59375 -0.875q1.59375 0 2.921875 0.46875q1.328125 0.46875 2.296875 1.5q0.96875 1.03125 1.5 2.640625q0.546875 1.609375 0.546875 3.90625l0 13.015625l-5.4375 0l0 -12.9375q0 -1.25 -0.28125 -2.046875q-0.28125 -0.8125 -0.8125 -1.28125q-0.515625 -0.46875 -1.265625 -0.65625q-0.734375 -0.1875 -1.671875 -0.1875q-1.390625 0 -2.375 0.5625q-0.96875 0.546875 -1.578125 1.53125l0 15.015625l-5.453125 0l0 -21.140625l4.921875 0zm18.347656 10.375q0 -2.296875 0.65625 -4.265625q0.671875 -1.96875 1.953125 -3.40625q1.28125 -1.453125 3.125 -2.265625q1.84375 -0.828125 4.21875 -0.828125q2.390625 0 4.234375 0.828125q1.859375 0.8125 3.140625 2.265625q1.28125 1.4375 1.9375 3.40625q0.671875 1.96875 0.671875 4.265625l0 0.40625q0 2.328125 -0.671875 4.296875q-0.65625 1.953125 -1.921875 3.40625q-1.265625 1.4375 -3.125 2.25q-1.859375 0.8125 -4.21875 0.8125q-2.390625 0 -4.25 -0.8125q-1.859375 -0.8125 -3.140625 -2.25q-1.28125 -1.453125 -1.953125 -3.40625q-0.65625 -1.96875 -0.65625 -4.296875l0 -0.40625zm5.421875 0.40625q0 1.328125 0.25 2.5q0.265625 1.15625 0.8125 2.03125q0.546875 0.859375 1.40625 1.375q0.875 0.5 2.109375 0.5q1.1875 0 2.046875 -0.5q0.859375 -0.515625 1.390625 -1.375q0.546875 -0.875 0.796875 -2.03125q0.25 -1.171875 0.25 -2.5l0 -0.40625q0 -1.28125 -0.25 -2.4375q-0.25 -1.15625 -0.796875 -2.03125q-0.53125 -0.875 -1.390625 -1.375q-0.859375 -0.515625 -2.09375 -0.515625q-1.203125 0 -2.0625 0.515625q-0.859375 0.5 -1.40625 1.375q-0.546875 0.875 -0.8125 2.03125q-0.25 1.15625 -0.25 2.4375l0 0.40625z" fill-rule="nonzero"/></g><path fill="#ffd966" d="m674.8189 755.7638l-554.3665 0l0 0c-12.800194 0 -23.176811 -10.376648 -23.176811 -23.176819l0 -581.1563c0 -6.146866 2.4418411 -12.041977 6.78833 -16.388474c4.3464966 -4.3464966 10.241608 -6.78833 16.388481 -6.78833l484.84186 0l0 -20.017654l69.52466 30.032257l-69.52466 30.032242l0 -20.017654l-484.84186 0c-1.7383728 0 -3.147606 1.4092407 -3.147606 3.1476135l0 581.1563c0 1.7383423 1.4092331 3.147583 3.147606 3.147583l554.3665 0z" fill-rule="evenodd"/><path stroke="#bf9000" stroke-width="1.0" stroke-linejoin="round" stroke-linecap="butt" d="m674.8189 755.7638l-554.3665 0l0 0c-12.800194 0 -23.176811 -10.376648 -23.176811 -23.176819l0 -581.1563c0 -6.146866 2.4418411 -12.041977 6.78833 -16.388474c4.3464966 -4.3464966 10.241608 -6.78833 16.388481 -6.78833l484.84186 0l0 -20.017654l69.52466 30.032257l-69.52466 30.032242l0 -20.017654l-484.84186 0c-1.7383728 0 -3.147606 1.4092407 -3.147606 3.1476135l0 581.1563c0 1.7383423 1.4092331 3.147583 3.147606 3.147583l554.3665 0z" fill-rule="evenodd"/><path fill="#ffd966" d="m674.8189 659.8819l-490.21283 0l0 0c-9.788803 0 -17.724182 -7.935425 -17.724182 -17.724182l0 -385.62146c0 -4.70076 1.8673553 -9.208969 5.191284 -12.532913c3.3239288 -3.3239288 7.8321533 -5.191284 12.532898 -5.191284l419.05548 0l0 -20.599457l71.15735 31.309937l-71.15735 31.309921l0 -20.599457l-415.3587 0c-0.0020446777 0 -0.003692627 0.0016479492 -0.003692627 0.003692627l0.003692627 378.22424c0 0.0020141602 0.0016479492 0.0036621094 0.0036773682 0.0036621094l486.5124 -0.0036621094z" fill-rule="evenodd"/><path stroke="#bf9000" stroke-width="1.0" stroke-linejoin="round" stroke-linecap="butt" d="m674.8189 659.8819l-490.21283 0l0 0c-9.788803 0 -17.724182 -7.935425 -17.724182 -17.724182l0 -385.62146c0 -4.70076 1.8673553 -9.208969 5.191284 -12.532913c3.3239288 -3.3239288 7.8321533 -5.191284 12.532898 -5.191284l419.05548 0l0 -20.599457l71.15735 31.309937l-71.15735 31.309921l0 -20.599457l-415.3587 0c-0.0020446777 0 -0.003692627 0.0016479492 -0.003692627 0.003692627l0.003692627 378.22424c0 0.0020141602 0.0016479492 0.0036621094 0.0036773682 0.0036621094l486.5124 -0.0036621094z" fill-rule="evenodd"/><path fill="#93c47d" d="m1085.1812 115.28346l554.36646 0l0 0c12.800171 0 23.176758 10.376617 23.176758 23.176819l0 581.1563c0 6.1468506 -2.4417725 12.041992 -6.78833 16.388489c-4.3464355 4.3464966 -10.241577 6.78833 -16.388428 6.78833l-484.8418 0l0 20.01764l-69.52466 -30.032288l69.52466 -30.032227l0 20.01764l484.8418 0c1.7384033 0 3.147583 -1.4092407 3.147583 -3.147583l0 -581.1563c0 -1.7383881 -1.4091797 -3.1476135 -3.147583 -3.1476135l-554.36646 0z" fill-rule="evenodd"/><path stroke="#38761d" stroke-width="1.0" stroke-linejoin="round" stroke-linecap="butt" d="m1085.1812 115.28346l554.36646 0l0 0c12.800171 0 23.176758 10.376617 23.176758 23.176819l0 581.1563c0 6.1468506 -2.4417725 12.041992 -6.78833 16.388489c-4.3464355 4.3464966 -10.241577 6.78833 -16.388428 6.78833l-484.8418 0l0 20.01764l-69.52466 -30.032288l69.52466 -30.032227l0 20.01764l484.8418 0c1.7384033 0 3.147583 -1.4092407 3.147583 -3.147583l0 -581.1563c0 -1.7383881 -1.4091797 -3.1476135 -3.147583 -3.1476135l-554.36646 0z" fill-rule="evenodd"/><path fill="#000000" fill-opacity="0.0" d="m166.88977 78.66929l332.81888 0l0 48.62992l-332.81888 0z" fill-rule="evenodd"/><path fill="#434343" d="m301.51407 103.63362l-7.125 0l0 6.046875l8.3125 0l0 1.84375l-10.46875 0l0 -17.0625l10.359375 0l0 1.84375l-8.203125 0l0 5.484375l7.125 0l0 1.84375zm13.449219 4.53125q0 -0.390625 -0.15625 -0.703125q-0.15625 -0.3125 -0.515625 -0.5625q-0.359375 -0.265625 -0.96875 -0.484375q-0.59375 -0.21875 -1.484375 -0.390625q-1.078125 -0.21875 -1.984375 -0.53125q-0.890625 -0.328125 -1.53125 -0.765625q-0.640625 -0.4375 -1.0 -1.03125q-0.34375 -0.59375 -0.34375 -1.375q0 -0.765625 0.359375 -1.4375q0.375 -0.6875 1.03125 -1.1875q0.65625 -0.5 1.5625 -0.796875q0.90625 -0.296875 2.0 -0.296875q1.171875 0 2.109375 0.3125q0.9375 0.296875 1.59375 0.84375q0.65625 0.53125 1.0 1.265625q0.359375 0.71875 0.359375 1.546875l-2.15625 0q0 -0.40625 -0.21875 -0.796875q-0.203125 -0.40625 -0.578125 -0.703125q-0.375 -0.3125 -0.921875 -0.5q-0.53125 -0.1875 -1.1875 -0.1875q-0.703125 0 -1.21875 0.15625q-0.515625 0.15625 -0.875 0.421875q-0.34375 0.25 -0.515625 0.59375q-0.171875 0.328125 -0.171875 0.703125q0 0.375 0.140625 0.671875q0.140625 0.28125 0.484375 0.515625q0.34375 0.234375 0.921875 0.421875q0.578125 0.1875 1.46875 0.359375q1.171875 0.25 2.09375 0.578125q0.9375 0.3125 1.5625 0.765625q0.640625 0.453125 0.96875 1.0625q0.34375 0.59375 0.34375 1.375q0 0.84375 -0.390625 1.53125q-0.375 0.6875 -1.0625 1.1875q-0.671875 0.484375 -1.625 0.765625q-0.953125 0.265625 -2.078125 0.265625q-1.28125 0 -2.296875 -0.34375q-1.0 -0.34375 -1.703125 -0.90625q-0.6875 -0.578125 -1.0625 -1.328125q-0.375 -0.75 -0.375 -1.5625l2.171875 0q0.046875 0.671875 0.359375 1.125q0.3125 0.453125 0.765625 0.734375q0.46875 0.28125 1.03125 0.40625q0.5625 0.109375 1.109375 0.109375q1.375 0 2.171875 -0.5q0.796875 -0.5 0.8125 -1.328125zm11.105469 -12.390625l0 3.0625l4.828125 0l0 1.6875l-4.828125 0l0 6.890625q0 0.734375 0.1875 1.21875q0.1875 0.46875 0.515625 0.765625q0.328125 0.28125 0.75 0.40625q0.4375 0.109375 0.921875 0.109375q0.34375 0 0.71875 -0.03125q0.375 -0.046875 0.734375 -0.109375q0.359375 -0.0625 0.671875 -0.125q0.3125 -0.0625 0.5 -0.109375l0.3125 1.53125q-0.265625 0.171875 -0.65625 0.296875q-0.390625 0.125 -0.84375 0.203125q-0.453125 0.09375 -0.96875 0.140625q-0.515625 0.046875 -1.015625 0.046875q-0.84375 0 -1.578125 -0.234375q-0.734375 -0.25 -1.28125 -0.765625q-0.53125 -0.53125 -0.84375 -1.34375q-0.296875 -0.828125 -0.296875 -2.0l0 -6.890625l-3.328125 0l0 -1.6875l3.328125 0l0 -3.0625l2.171875 0zm17.605469 15.75q-0.125 -0.25 -0.203125 -0.609375q-0.078125 -0.375 -0.109375 -0.78125q-0.328125 0.328125 -0.734375 0.625q-0.40625 0.296875 -0.890625 0.515625q-0.484375 0.21875 -1.046875 0.34375q-0.546875 0.140625 -1.171875 0.140625q-1.0 0 -1.8125 -0.296875q-0.8125 -0.296875 -1.390625 -0.78125q-0.5625 -0.5 -0.875 -1.1875q-0.3125 -0.6875 -0.3125 -1.484375q0 -1.046875 0.40625 -1.828125q0.421875 -0.78125 1.1875 -1.296875q0.765625 -0.53125 1.828125 -0.78125q1.078125 -0.265625 2.40625 -0.265625l2.359375 0l0 -1.0q0 -0.578125 -0.21875 -1.03125q-0.203125 -0.453125 -0.59375 -0.765625q-0.375 -0.328125 -0.9375 -0.5q-0.546875 -0.1875 -1.25 -0.1875q-0.640625 0 -1.15625 0.171875q-0.5 0.15625 -0.859375 0.4375q-0.34375 0.265625 -0.546875 0.640625q-0.1875 0.359375 -0.1875 0.75l-2.171875 0q0 -0.6875 0.34375 -1.34375q0.359375 -0.671875 1.0 -1.203125q0.65625 -0.546875 1.578125 -0.875q0.9375 -0.328125 2.125 -0.328125q1.078125 0 2.0 0.265625q0.921875 0.265625 1.59375 0.796875q0.6875 0.53125 1.0625 1.328125q0.390625 0.796875 0.390625 1.875l0 5.890625q0 0.625 0.109375 1.34375q0.125 0.703125 0.34375 1.234375l0 0.1875l-2.265625 0zm-3.828125 -1.65625q0.625 0 1.171875 -0.15625q0.5625 -0.171875 1.0 -0.4375q0.453125 -0.265625 0.78125 -0.609375q0.328125 -0.359375 0.515625 -0.734375l0 -2.5625l-2.015625 0q-1.890625 0 -2.953125 0.5625q-1.046875 0.5625 -1.046875 1.765625q0 0.46875 0.15625 0.875q0.15625 0.390625 0.46875 0.6875q0.328125 0.28125 0.796875 0.453125q0.484375 0.15625 1.125 0.15625zm9.480469 -4.796875q0 -1.40625 0.359375 -2.59375q0.359375 -1.203125 1.015625 -2.046875q0.671875 -0.859375 1.609375 -1.34375q0.9375 -0.484375 2.09375 -0.484375q1.140625 0 1.984375 0.390625q0.859375 0.375 1.46875 1.109375l0 -6.578125l2.171875 0l0 18.0l-1.984375 0l-0.09375 -1.34375q-0.640625 0.78125 -1.515625 1.1875q-0.875 0.390625 -2.046875 0.390625q-1.15625 0 -2.09375 -0.484375q-0.921875 -0.5 -1.578125 -1.359375q-0.65625 -0.875 -1.03125 -2.046875q-0.359375 -1.1875 -0.359375 -2.546875l0 -0.25zm2.171875 0.25q0 0.921875 0.203125 1.765625q0.203125 0.828125 0.609375 1.46875q0.421875 0.625 1.0625 1.0q0.640625 0.359375 1.546875 0.359375q0.546875 0 0.984375 -0.125q0.453125 -0.125 0.8125 -0.359375q0.375 -0.25 0.65625 -0.578125q0.28125 -0.34375 0.484375 -0.75l0 -5.890625q-0.421875 -0.765625 -1.140625 -1.265625q-0.703125 -0.5 -1.765625 -0.5q-0.921875 0 -1.578125 0.375q-0.640625 0.375 -1.0625 1.015625q-0.40625 0.640625 -0.609375 1.484375q-0.203125 0.828125 -0.203125 1.75l0 0.25zm12.042969 -0.25q0 -1.375 0.390625 -2.546875q0.40625 -1.1875 1.140625 -2.046875q0.75 -0.875 1.8125 -1.375q1.0625 -0.5 2.40625 -0.5q1.34375 0 2.40625 0.5q1.078125 0.5 1.828125 1.375q0.75 0.859375 1.140625 2.046875q0.40625 1.171875 0.40625 2.546875l0 0.25q0 1.375 -0.40625 2.546875q-0.390625 1.171875 -1.140625 2.046875q-0.75 0.859375 -1.8125 1.359375q-1.0625 0.484375 -2.40625 0.484375q-1.34375 0 -2.421875 -0.484375q-1.0625 -0.5 -1.8125 -1.359375q-0.734375 -0.875 -1.140625 -2.046875q-0.390625 -1.171875 -0.390625 -2.546875l0 -0.25zm2.15625 0.25q0 0.9375 0.21875 1.796875q0.234375 0.84375 0.6875 1.484375q0.453125 0.640625 1.125 1.015625q0.6875 0.375 1.578125 0.375q0.890625 0 1.5625 -0.375q0.6875 -0.375 1.125 -1.015625q0.453125 -0.640625 0.671875 -1.484375q0.234375 -0.859375 0.234375 -1.796875l0 -0.25q0 -0.9375 -0.234375 -1.78125q-0.21875 -0.84375 -0.671875 -1.484375q-0.453125 -0.65625 -1.125 -1.03125q-0.671875 -0.390625 -1.578125 -0.390625q-0.90625 0 -1.578125 0.390625q-0.65625 0.375 -1.109375 1.03125q-0.453125 0.640625 -0.6875 1.484375q-0.21875 0.84375 -0.21875 1.78125l0 0.25z" fill-rule="nonzero"/><path fill="#000000" fill-opacity="0.0" d="m1257.6431 674.4829l332.81885 0l0 48.629944l-332.81885 0z" fill-rule="evenodd"/><path fill="#434343" d="m1391.033 702.916l-5.703125 0l-1.359375 4.421875l-2.171875 0l5.5 -17.0625l1.828125 0l5.40625 17.0625l-2.15625 0l-1.34375 -4.421875zm-5.109375 -1.890625l4.53125 0l-2.25 -7.40625l-2.28125 7.40625zm16.761719 4.78125q0.59375 0 1.140625 -0.1875q0.5625 -0.1875 1.0 -0.515625q0.4375 -0.328125 0.6875 -0.78125q0.265625 -0.453125 0.28125 -0.984375l2.046875 0q0 0.84375 -0.4375 1.609375q-0.421875 0.765625 -1.140625 1.359375q-0.71875 0.578125 -1.640625 0.921875q-0.921875 0.34375 -1.9375 0.34375q-1.4375 0 -2.515625 -0.515625q-1.078125 -0.515625 -1.796875 -1.390625q-0.71875 -0.875 -1.09375 -2.015625q-0.359375 -1.140625 -0.359375 -2.40625l0 -0.5q0 -1.25 0.359375 -2.390625q0.375 -1.15625 1.09375 -2.03125q0.71875 -0.875 1.796875 -1.390625q1.078125 -0.515625 2.515625 -0.515625q1.125 0 2.0625 0.359375q0.953125 0.359375 1.640625 0.984375q0.6875 0.609375 1.0625 1.453125q0.390625 0.84375 0.390625 1.796875l-2.046875 0q-0.015625 -0.5625 -0.25 -1.078125q-0.234375 -0.515625 -0.65625 -0.890625q-0.40625 -0.390625 -0.984375 -0.609375q-0.5625 -0.234375 -1.21875 -0.234375q-1.0 0 -1.6875 0.40625q-0.6875 0.40625 -1.109375 1.0625q-0.421875 0.640625 -0.609375 1.453125q-0.171875 0.8125 -0.171875 1.625l0 0.5q0 0.828125 0.171875 1.640625q0.1875 0.8125 0.59375 1.46875q0.421875 0.65625 1.109375 1.0625q0.6875 0.390625 1.703125 0.390625zm14.402344 0q0.59375 0 1.140625 -0.1875q0.5625 -0.1875 1.0 -0.515625q0.4375 -0.328125 0.6875 -0.78125q0.265625 -0.453125 0.28125 -0.984375l2.046875 0q0 0.84375 -0.4375 1.609375q-0.421875 0.765625 -1.140625 1.359375q-0.71875 0.578125 -1.640625 0.921875q-0.921875 0.34375 -1.9375 0.34375q-1.4375 0 -2.515625 -0.515625q-1.078125 -0.515625 -1.796875 -1.390625q-0.71875 -0.875 -1.09375 -2.015625q-0.359375 -1.140625 -0.359375 -2.40625l0 -0.5q0 -1.25 0.359375 -2.390625q0.375 -1.15625 1.09375 -2.03125q0.71875 -0.875 1.796875 -1.390625q1.078125 -0.515625 2.515625 -0.515625q1.125 0 2.0625 0.359375q0.953125 0.359375 1.640625 0.984375q0.6875 0.609375 1.0625 1.453125q0.390625 0.84375 0.390625 1.796875l-2.046875 0q-0.015625 -0.5625 -0.25 -1.078125q-0.234375 -0.515625 -0.65625 -0.890625q-0.40625 -0.390625 -0.984375 -0.609375q-0.5625 -0.234375 -1.21875 -0.234375q-1.0 0 -1.6875 0.40625q-0.6875 0.40625 -1.109375 1.0625q-0.421875 0.640625 -0.609375 1.453125q-0.171875 0.8125 -0.171875 1.625l0 0.5q0 0.828125 0.171875 1.640625q0.1875 0.8125 0.59375 1.46875q0.421875 0.65625 1.109375 1.0625q0.6875 0.390625 1.703125 0.390625zm9.339844 -11.15625l6.484375 0l0 10.8125l4.140625 0l0 1.875l-10.625 0l0 -1.875l4.3125 0l0 -8.921875l-4.3125 0l0 -1.890625zm4.03125 -3.328125q0 -0.53125 0.328125 -0.890625q0.328125 -0.375 0.984375 -0.375q0.640625 0 0.96875 0.375q0.328125 0.359375 0.328125 0.890625q0 0.53125 -0.328125 0.890625q-0.328125 0.34375 -0.96875 0.34375q-0.65625 0 -0.984375 -0.34375q-0.328125 -0.359375 -0.328125 -0.890625zm9.433594 9.5625q0 -1.375 0.390625 -2.546875q0.40625 -1.1875 1.140625 -2.046875q0.75 -0.875 1.8125 -1.375q1.0625 -0.5 2.40625 -0.5q1.34375 0 2.40625 0.5q1.078125 0.5 1.828125 1.375q0.75 0.859375 1.140625 2.046875q0.40625 1.171875 0.40625 2.546875l0 0.25q0 1.375 -0.40625 2.546875q-0.390625 1.171875 -1.140625 2.046875q-0.75 0.859375 -1.8125 1.359375q-1.0625 0.484375 -2.40625 0.484375q-1.34375 0 -2.421875 -0.484375q-1.0625 -0.5 -1.8125 -1.359375q-0.734375 -0.875 -1.140625 -2.046875q-0.390625 -1.171875 -0.390625 -2.546875l0 -0.25zm2.15625 0.25q0 0.9375 0.21875 1.796875q0.234375 0.84375 0.6875 1.484375q0.453125 0.640625 1.125 1.015625q0.6875 0.375 1.578125 0.375q0.890625 0 1.5625 -0.375q0.6875 -0.375 1.125 -1.015625q0.453125 -0.640625 0.671875 -1.484375q0.234375 -0.859375 0.234375 -1.796875l0 -0.25q0 -0.9375 -0.234375 -1.78125q-0.21875 -0.84375 -0.671875 -1.484375q-0.453125 -0.65625 -1.125 -1.03125q-0.671875 -0.390625 -1.578125 -0.390625q-0.90625 0 -1.578125 0.390625q-0.65625 0.375 -1.109375 1.03125q-0.453125 0.640625 -0.6875 1.484375q-0.21875 0.84375 -0.21875 1.78125l0 0.25zm4.375 -11.15625l2.625 0l-3.140625 3.125l-1.640625 0l2.15625 -3.125zm10.417969 4.671875l0.15625 1.875q0.6875 -0.984375 1.6875 -1.53125q1.015625 -0.5625 2.265625 -0.578125q0.984375 0 1.796875 0.28125q0.828125 0.28125 1.390625 0.890625q0.578125 0.59375 0.890625 1.515625q0.3125 0.921875 0.3125 2.1875l0 8.046875l-2.171875 0l0 -8.0q0 -0.84375 -0.1875 -1.421875q-0.1875 -0.59375 -0.5625 -0.953125q-0.359375 -0.375 -0.890625 -0.53125q-0.53125 -0.171875 -1.234375 -0.171875q-1.078125 0 -1.90625 0.546875q-0.828125 0.546875 -1.328125 1.4375l0 9.09375l-2.15625 0l0 -12.6875l1.9375 0z" fill-rule="nonzero"/><path fill="#000000" fill-opacity="0.0" d="m219.6378 189.36482l332.81885 0l0 48.62993l-332.81885 0z" fill-rule="evenodd"/><path fill="#434343" d="m336.1195 215.25104l-3.40625 0l0 6.96875l-2.15625 0l0 -17.0625l5.0 0q1.203125 0.015625 2.25 0.34375q1.0625 0.3125 1.84375 0.953125q0.796875 0.625 1.25 1.578125q0.453125 0.953125 0.453125 2.25q0 0.828125 -0.25 1.515625q-0.234375 0.6875 -0.65625 1.25q-0.421875 0.5625 -1.015625 1.0q-0.578125 0.4375 -1.28125 0.734375l3.625 7.296875l-0.015625 0.140625l-2.28125 0l-3.359375 -6.96875zm-3.40625 -1.78125l2.90625 0q0.71875 0 1.359375 -0.21875q0.65625 -0.21875 1.140625 -0.625q0.484375 -0.421875 0.765625 -1.0q0.28125 -0.59375 0.28125 -1.375q0 -0.8125 -0.265625 -1.421875q-0.265625 -0.625 -0.75 -1.03125q-0.484375 -0.421875 -1.15625 -0.625q-0.65625 -0.21875 -1.4375 -0.234375l-2.84375 0l0 6.53125zm17.761719 8.984375q-1.328125 0 -2.453125 -0.453125q-1.125 -0.46875 -1.921875 -1.28125q-0.796875 -0.828125 -1.25 -1.953125q-0.4375 -1.125 -0.4375 -2.4375l0 -0.5q0 -1.53125 0.484375 -2.734375q0.5 -1.21875 1.3125 -2.0625q0.828125 -0.84375 1.859375 -1.28125q1.03125 -0.453125 2.125 -0.453125q1.375 0 2.390625 0.484375q1.03125 0.46875 1.703125 1.3125q0.6875 0.828125 1.015625 1.96875q0.34375 1.140625 0.34375 2.46875l0 0.96875l-9.0625 0q0.03125 0.859375 0.328125 1.625q0.3125 0.765625 0.828125 1.34375q0.515625 0.5625 1.234375 0.890625q0.734375 0.328125 1.625 0.328125q1.15625 0 2.046875 -0.46875q0.90625 -0.46875 1.515625 -1.25l1.3125 1.03125q-0.3125 0.484375 -0.796875 0.921875q-0.46875 0.4375 -1.09375 0.78125q-0.609375 0.34375 -1.40625 0.546875q-0.78125 0.203125 -1.703125 0.203125zm-0.28125 -11.375q-0.65625 0 -1.25 0.25q-0.578125 0.234375 -1.046875 0.703125q-0.46875 0.453125 -0.796875 1.140625q-0.3125 0.671875 -0.4375 1.546875l6.8125 0l0 -0.171875q-0.03125 -0.625 -0.234375 -1.25q-0.203125 -0.625 -0.609375 -1.109375q-0.390625 -0.5 -1.0 -0.796875q-0.609375 -0.3125 -1.4375 -0.3125zm12.324219 11.140625l0 -11.0l-3.5 0l0 -1.6875l3.5 0l0 -0.890625q0 -1.21875 0.34375 -2.125q0.359375 -0.921875 1.015625 -1.546875q0.65625 -0.625 1.5625 -0.9375q0.921875 -0.3125 2.046875 -0.3125q0.765625 0 1.5 0.125q0.734375 0.125 1.5 0.328125l-0.25 1.796875q-0.484375 -0.171875 -1.125 -0.296875q-0.640625 -0.125 -1.359375 -0.125q-1.53125 0.015625 -2.296875 0.78125q-0.765625 0.765625 -0.765625 2.3125l0 0.890625l4.890625 0l0 1.6875l-4.890625 0l0 11.0l-2.171875 0zm19.398438 -1.75q-0.625 0.9375 -1.578125 1.46875q-0.953125 0.515625 -2.1875 0.515625q-1.0 0 -1.8125 -0.3125q-0.8125 -0.3125 -1.390625 -0.96875q-0.5625 -0.65625 -0.875 -1.671875q-0.3125 -1.015625 -0.3125 -2.421875l0 -7.546875l2.171875 0l0 7.5625q0 1.03125 0.15625 1.71875q0.171875 0.671875 0.5 1.078125q0.328125 0.40625 0.796875 0.578125q0.484375 0.15625 1.09375 0.15625q1.328125 0 2.140625 -0.53125q0.8125 -0.546875 1.21875 -1.46875l0 -9.09375l2.171875 0l0 12.6875l-1.96875 0l-0.125 -1.75zm11.777344 1.984375q-1.328125 0 -2.453125 -0.453125q-1.125 -0.46875 -1.921875 -1.28125q-0.796875 -0.828125 -1.25 -1.953125q-0.4375 -1.125 -0.4375 -2.4375l0 -0.5q0 -1.53125 0.484375 -2.734375q0.5 -1.21875 1.3125 -2.0625q0.828125 -0.84375 1.859375 -1.28125q1.03125 -0.453125 2.125 -0.453125q1.375 0 2.390625 0.484375q1.03125 0.46875 1.703125 1.3125q0.6875 0.828125 1.015625 1.96875q0.34375 1.140625 0.34375 2.46875l0 0.96875l-9.0625 0q0.03125 0.859375 0.328125 1.625q0.3125 0.765625 0.828125 1.34375q0.515625 0.5625 1.234375 0.890625q0.734375 0.328125 1.625 0.328125q1.15625 0 2.046875 -0.46875q0.90625 -0.46875 1.515625 -1.25l1.3125 1.03125q-0.3125 0.484375 -0.796875 0.921875q-0.46875 0.4375 -1.09375 0.78125q-0.609375 0.34375 -1.40625 0.546875q-0.78125 0.203125 -1.703125 0.203125zm-0.28125 -11.375q-0.65625 0 -1.25 0.25q-0.578125 0.234375 -1.046875 0.703125q-0.46875 0.453125 -0.796875 1.140625q-0.3125 0.671875 -0.4375 1.546875l6.8125 0l0 -0.171875q-0.03125 -0.625 -0.234375 -1.25q-0.203125 -0.625 -0.609375 -1.109375q-0.390625 -0.5 -1.0 -0.796875q-0.609375 -0.3125 -1.4375 -0.3125zm17.386719 -1.78125q0.3125 0 0.640625 0.03125q0.328125 0.015625 0.625 0.0625q0.296875 0.03125 0.546875 0.09375q0.25 0.046875 0.421875 0.125l-0.296875 2.125q-0.625 -0.140625 -1.203125 -0.203125q-0.5625 -0.078125 -1.1875 -0.078125q-1.515625 0 -2.46875 0.703125q-0.9375 0.6875 -1.390625 1.921875l0 8.140625l-2.171875 0l0 -12.6875l2.0625 0l0.109375 2.015625q0.765625 -1.03125 1.84375 -1.640625q1.09375 -0.609375 2.46875 -0.609375zm8.699219 11.15625l8.078125 0l0 1.765625l-10.84375 0l0 -1.59375l7.578125 -9.296875l-7.46875 0l0 -1.796875l10.3125 0l0 1.546875l-7.65625 9.375zm11.199219 -4.6875q0 -1.375 0.390625 -2.546875q0.40625 -1.1875 1.140625 -2.046875q0.75 -0.875 1.8125 -1.375q1.0625 -0.5 2.40625 -0.5q1.34375 0 2.40625 0.5q1.078125 0.5 1.828125 1.375q0.75 0.859375 1.140625 2.046875q0.40625 1.171875 0.40625 2.546875l0 0.25q0 1.375 -0.40625 2.546875q-0.390625 1.171875 -1.140625 2.046875q-0.75 0.859375 -1.8125 1.359375q-1.0625 0.484375 -2.40625 0.484375q-1.34375 0 -2.421875 -0.484375q-1.0625 -0.5 -1.8125 -1.359375q-0.734375 -0.875 -1.140625 -2.046875q-0.390625 -1.171875 -0.390625 -2.546875l0 -0.25zm2.15625 0.25q0 0.9375 0.21875 1.796875q0.234375 0.84375 0.6875 1.484375q0.453125 0.640625 1.125 1.015625q0.6875 0.375 1.578125 0.375q0.890625 0 1.5625 -0.375q0.6875 -0.375 1.125 -1.015625q0.453125 -0.640625 0.671875 -1.484375q0.234375 -0.859375 0.234375 -1.796875l0 -0.25q0 -0.9375 -0.234375 -1.78125q-0.21875 -0.84375 -0.671875 -1.484375q-0.453125 -0.65625 -1.125 -1.03125q-0.671875 -0.390625 -1.578125 -0.390625q-0.90625 0 -1.578125 0.390625q-0.65625 0.375 -1.109375 1.03125q-0.453125 0.640625 -0.6875 1.484375q-0.21875 0.84375 -0.21875 1.78125l0 0.25z" fill-rule="nonzero"/></g></svg>